<svg xmlns="http://www.w3.org/2000/svg" xmlns:xlink="http://www.w3.org/1999/xlink" width="1088" height="211pt" viewBox="0 0 816 211"><g id="graph0" class="graph" transform="scale(1 1) rotate(0) translate(4 207)"><title>dependencies</title><polygon fill="#fff" stroke="transparent" points="-4 4 -4 -207 812 -207 812 4 -4 4"/><text x="383.009" y="-42.4" fill="#000" font-family="sans-serif" font-size="14" font-weight="bold" text-anchor="start">Legend</text><polygon fill="#ffffb3" stroke="transparent" points="170 -10 170 -30 190 -30 190 -10 170 -10"/><text x="193.629" y="-15.4" fill="#000" font-family="sans-serif" font-size="14" text-anchor="start">Declarations</text><polygon fill="#8dd3c7" stroke="transparent" points="283 -10 283 -30 303 -30 303 -10 283 -10"/><text x="306.725" y="-15.4" fill="#000" font-family="sans-serif" font-size="14" text-anchor="start">Module</text><polygon fill="#80b1d3" stroke="transparent" points="369 -10 369 -30 389 -30 389 -10 369 -10"/><text x="392.781" y="-15.4" fill="#000" font-family="sans-serif" font-size="14" text-anchor="start">Bootstrap</text><polygon fill="#fdb462" stroke="transparent" points="466 -10 466 -30 486 -30 486 -10 466 -10"/><text x="489.673" y="-15.4" fill="#000" font-family="sans-serif" font-size="14" text-anchor="start">Providers</text><polygon fill="#fb8072" stroke="transparent" points="562 -10 562 -30 582 -30 582 -10 562 -10"/><text x="585.726" y="-15.4" fill="#000" font-family="sans-serif" font-size="14" text-anchor="start">Exports</text><g id="clust1" class="cluster"><title>cluster_AuthenticationModule</title><polygon fill="none" stroke="#000" stroke-dasharray="1 5" points="8 -70 8 -195 800 -195 800 -70 8 -70"/></g><g id="clust2" class="cluster"><title>cluster_AuthenticationModule_declarations</title><polygon fill="none" stroke="#000" points="498 -78 498 -130 792 -130 792 -78 498 -78"/></g><g id="clust5" class="cluster"><title>cluster_AuthenticationModule_imports</title><polygon fill="none" stroke="#000" points="16 -78 16 -130 490 -130 490 -78 16 -78"/></g><g id="node1" class="node"><title>LoginComponent</title><polygon fill="#ffffb3" stroke="#000" points="784.276 -122 669.724 -122 669.724 -86 784.276 -86 784.276 -122"/><text x="727" y="-99.8" fill="#000" font-family="Times,serif" font-size="14" text-anchor="middle">LoginComponent</text></g><g id="node3" class="node"><title>AuthenticationModule</title><polygon fill="#8dd3c7" stroke="#000" points="459.253 -187 456.253 -191 435.253 -191 432.253 -187 316.747 -187 316.747 -151 459.253 -151 459.253 -187"/><text x="388" y="-164.8" fill="#000" font-family="Times,serif" font-size="14" text-anchor="middle">AuthenticationModule</text></g><g id="edge1" class="edge"><title>LoginComponent-&gt;AuthenticationModule</title><path fill="none" stroke="#000" d="M727,-122.2843C727,-143.3211 727,-175 727,-175 727,-175 469.4789,-175 469.4789,-175"/><polygon fill="#000" stroke="#000" points="469.479 -171.5 459.479 -175 469.479 -178.5 469.479 -171.5"/></g><g id="node2" class="node"><title>LoginFormComponent</title><polygon fill="#ffffb3" stroke="#000" points="651.609 -122 506.391 -122 506.391 -86 651.609 -86 651.609 -122"/><text x="579" y="-99.8" fill="#000" font-family="Times,serif" font-size="14" text-anchor="middle">LoginFormComponent</text></g><g id="edge2" class="edge"><title>LoginFormComponent-&gt;AuthenticationModule</title><path fill="none" stroke="#000" d="M579,-122.0225C579,-139.3734 579,-163 579,-163 579,-163 469.393,-163 469.393,-163"/><polygon fill="#000" stroke="#000" points="469.393 -159.5 459.393 -163 469.393 -166.5 469.393 -159.5"/></g><g id="node4" class="node"><title>AuthenticationRoutingModule</title><polygon fill="#8dd3c7" stroke="#000" points="481.871 -122 478.871 -126 457.871 -126 454.871 -122 294.129 -122 294.129 -86 481.871 -86 481.871 -122"/><text x="388" y="-99.8" fill="#000" font-family="Times,serif" font-size="14" text-anchor="middle">AuthenticationRoutingModule</text></g><g id="edge3" class="edge"><title>AuthenticationRoutingModule-&gt;AuthenticationModule</title><path fill="none" stroke="#000" d="M388,-122.1061C388,-122.1061 388,-140.991 388,-140.991"/><polygon fill="#000" stroke="#000" points="384.5 -140.991 388 -150.991 391.5 -140.991 384.5 -140.991"/></g><g id="node5" class="node"><title>MaterialModule</title><polygon fill="#8dd3c7" stroke="#000" points="276.471 -122 273.471 -126 252.471 -126 249.471 -122 169.529 -122 169.529 -86 276.471 -86 276.471 -122"/><text x="223" y="-99.8" fill="#000" font-family="Times,serif" font-size="14" text-anchor="middle">MaterialModule</text></g><g id="edge4" class="edge"><title>MaterialModule-&gt;AuthenticationModule</title><path fill="none" stroke="#000" d="M223,-122.0225C223,-139.3734 223,-163 223,-163 223,-163 306.5882,-163 306.5882,-163"/><polygon fill="#000" stroke="#000" points="306.588 -166.5 316.588 -163 306.588 -159.5 306.588 -166.5"/></g><g id="node6" class="node"><title>NotificationModule</title><polygon fill="#8dd3c7" stroke="#000" points="151.699 -122 148.699 -126 127.699 -126 124.699 -122 24.301 -122 24.301 -86 151.699 -86 151.699 -122"/><text x="88" y="-99.8" fill="#000" font-family="Times,serif" font-size="14" text-anchor="middle">NotificationModule</text></g><g id="edge5" class="edge"><title>NotificationModule-&gt;AuthenticationModule</title><path fill="none" stroke="#000" d="M88,-122.2843C88,-143.3211 88,-175 88,-175 88,-175 306.5237,-175 306.5237,-175"/><polygon fill="#000" stroke="#000" points="306.524 -178.5 316.524 -175 306.524 -171.5 306.524 -178.5"/></g></g></svg>