<svg xmlns="http://www.w3.org/2000/svg" xmlns:xlink="http://www.w3.org/1999/xlink" width="905pt" height="211pt" viewBox="0 0 905 211"><g id="graph0" class="graph" transform="scale(1 1) rotate(0) translate(4 207)"><title>dependencies</title><polygon fill="#fff" stroke="transparent" points="-4 4 -4 -207 901 -207 901 4 -4 4"/><text x="427.509" y="-42.4" fill="#000" font-family="sans-serif" font-size="14" font-weight="bold" text-anchor="start">Legend</text><polygon fill="#ffffb3" stroke="transparent" points="214.5 -10 214.5 -30 234.5 -30 234.5 -10 214.5 -10"/><text x="238.129" y="-15.4" fill="#000" font-family="sans-serif" font-size="14" text-anchor="start">Declarations</text><polygon fill="#8dd3c7" stroke="transparent" points="327.5 -10 327.5 -30 347.5 -30 347.5 -10 327.5 -10"/><text x="351.225" y="-15.4" fill="#000" font-family="sans-serif" font-size="14" text-anchor="start">Module</text><polygon fill="#80b1d3" stroke="transparent" points="413.5 -10 413.5 -30 433.5 -30 433.5 -10 413.5 -10"/><text x="437.281" y="-15.4" fill="#000" font-family="sans-serif" font-size="14" text-anchor="start">Bootstrap</text><polygon fill="#fdb462" stroke="transparent" points="510.5 -10 510.5 -30 530.5 -30 530.5 -10 510.5 -10"/><text x="534.173" y="-15.4" fill="#000" font-family="sans-serif" font-size="14" text-anchor="start">Providers</text><polygon fill="#fb8072" stroke="transparent" points="606.5 -10 606.5 -30 626.5 -30 626.5 -10 606.5 -10"/><text x="630.226" y="-15.4" fill="#000" font-family="sans-serif" font-size="14" text-anchor="start">Exports</text><g id="clust1" class="cluster"><title>cluster_DashboardModule</title><polygon fill="none" stroke="#000" stroke-dasharray="1 5" points="8 -70 8 -195 889 -195 889 -70 8 -70"/></g><g id="clust2" class="cluster"><title>cluster_DashboardModule_declarations</title><polygon fill="none" stroke="#000" points="721 -78 721 -130 881 -130 881 -78 721 -78"/></g><g id="clust4" class="cluster"><title>cluster_DashboardModule_imports</title><polygon fill="none" stroke="#000" points="16 -78 16 -130 713 -130 713 -78 16 -78"/></g><g id="node1" class="node"><title>DashBoardComponent</title><polygon fill="#ffffb3" stroke="#000" points="873.31 -122 728.69 -122 728.69 -86 873.31 -86 873.31 -122"/><text x="801" y="-99.8" fill="#000" font-family="Times,serif" font-size="14" text-anchor="middle">DashBoardComponent</text></g><g id="node2" class="node"><title>DashboardModule</title><polygon fill="#8dd3c7" stroke="#000" points="513.191 -187 510.191 -191 489.191 -191 486.191 -187 392.809 -187 392.809 -151 513.191 -151 513.191 -187"/><text x="453" y="-164.8" fill="#000" font-family="Times,serif" font-size="14" text-anchor="middle">DashboardModule</text></g><g id="edge1" class="edge"><title>DashBoardComponent-&gt;DashboardModule</title><path fill="none" stroke="#000" d="M801,-122.2843C801,-143.3211 801,-175 801,-175 801,-175 523.2197,-175 523.2197,-175"/><polygon fill="#000" stroke="#000" points="523.22 -171.5 513.22 -175 523.22 -178.5 523.22 -171.5"/></g><g id="node3" class="node"><title>AppCustomLayoutsModule</title><polygon fill="#8dd3c7" stroke="#000" points="705.322 -122 702.322 -126 681.322 -126 678.322 -122 532.678 -122 532.678 -86 705.322 -86 705.322 -122"/><text x="619" y="-99.8" fill="#000" font-family="Times,serif" font-size="14" text-anchor="middle">AppCustomLayoutsModule</text></g><g id="edge2" class="edge"><title>AppCustomLayoutsModule-&gt;DashboardModule</title><path fill="none" stroke="#000" d="M619,-122.0225C619,-139.3734 619,-163 619,-163 619,-163 523.3994,-163 523.3994,-163"/><polygon fill="#000" stroke="#000" points="523.399 -159.5 513.399 -163 523.399 -166.5 523.399 -159.5"/></g><g id="node4" class="node"><title>AppLoaderModule</title><polygon fill="#8dd3c7" stroke="#000" points="514.799 -122 511.799 -126 490.799 -126 487.799 -122 391.201 -122 391.201 -86 514.799 -86 514.799 -122"/><text x="453" y="-99.8" fill="#000" font-family="Times,serif" font-size="14" text-anchor="middle">AppLoaderModule</text></g><g id="edge3" class="edge"><title>AppLoaderModule-&gt;DashboardModule</title><path fill="none" stroke="#000" d="M453,-122.1061C453,-122.1061 453,-140.991 453,-140.991"/><polygon fill="#000" stroke="#000" points="449.5 -140.991 453 -150.991 456.5 -140.991 449.5 -140.991"/></g><g id="node5" class="node"><title>DashboardRoutingModule</title><polygon fill="#8dd3c7" stroke="#000" points="373.809 -122 370.809 -126 349.809 -126 346.809 -122 208.191 -122 208.191 -86 373.809 -86 373.809 -122"/><text x="291" y="-99.8" fill="#000" font-family="Times,serif" font-size="14" text-anchor="middle">DashboardRoutingModule</text></g><g id="edge4" class="edge"><title>DashboardRoutingModule-&gt;DashboardModule</title><path fill="none" stroke="#000" d="M291,-122.0225C291,-139.3734 291,-163 291,-163 291,-163 382.6772,-163 382.6772,-163"/><polygon fill="#000" stroke="#000" points="382.677 -166.5 392.677 -163 382.677 -159.5 382.677 -166.5"/></g><g id="node6" class="node"><title>Vnas2UiCommonsModule</title><polygon fill="#8dd3c7" stroke="#000" points="190.375 -122 187.375 -126 166.375 -126 163.375 -122 23.625 -122 23.625 -86 190.375 -86 190.375 -122"/><text x="107" y="-99.8" fill="#000" font-family="Times,serif" font-size="14" text-anchor="middle">Vnas2UiCommonsModule</text></g><g id="edge5" class="edge"><title>Vnas2UiCommonsModule-&gt;DashboardModule</title><path fill="none" stroke="#000" d="M107,-122.2843C107,-143.3211 107,-175 107,-175 107,-175 382.7314,-175 382.7314,-175"/><polygon fill="#000" stroke="#000" points="382.731 -178.5 392.731 -175 382.731 -171.5 382.731 -178.5"/></g></g></svg>