<svg xmlns="http://www.w3.org/2000/svg" xmlns:xlink="http://www.w3.org/1999/xlink" width="672" height="284pt" viewBox="0 0 504 284"><g id="graph0" class="graph" transform="scale(1 1) rotate(0) translate(4 280)"><title>dependencies</title><polygon fill="#fff" stroke="transparent" points="-4 4 -4 -280 500 -280 500 4 -4 4"/><text x="227.009" y="-42.4" fill="#000" font-family="sans-serif" font-size="14" font-weight="bold" text-anchor="start">Legend</text><polygon fill="#ffffb3" stroke="transparent" points="14 -10 14 -30 34 -30 34 -10 14 -10"/><text x="37.629" y="-15.4" fill="#000" font-family="sans-serif" font-size="14" text-anchor="start">Declarations</text><polygon fill="#8dd3c7" stroke="transparent" points="127 -10 127 -30 147 -30 147 -10 127 -10"/><text x="150.725" y="-15.4" fill="#000" font-family="sans-serif" font-size="14" text-anchor="start">Module</text><polygon fill="#80b1d3" stroke="transparent" points="213 -10 213 -30 233 -30 233 -10 213 -10"/><text x="236.781" y="-15.4" fill="#000" font-family="sans-serif" font-size="14" text-anchor="start">Bootstrap</text><polygon fill="#fdb462" stroke="transparent" points="310 -10 310 -30 330 -30 330 -10 310 -10"/><text x="333.673" y="-15.4" fill="#000" font-family="sans-serif" font-size="14" text-anchor="start">Providers</text><polygon fill="#fb8072" stroke="transparent" points="406 -10 406 -30 426 -30 426 -10 406 -10"/><text x="429.726" y="-15.4" fill="#000" font-family="sans-serif" font-size="14" text-anchor="start">Exports</text><g id="clust1" class="cluster"><title>cluster_AppHeadersModule</title><polygon fill="none" stroke="#000" stroke-dasharray="1 5" points="155 -70 155 -268 341 -268 341 -70 155 -70"/></g><g id="clust2" class="cluster"><title>cluster_AppHeadersModule_declarations</title><polygon fill="none" stroke="#000" points="164 -78 164 -130 332 -130 332 -78 164 -78"/></g><g id="clust5" class="cluster"><title>cluster_AppHeadersModule_exports</title><polygon fill="none" stroke="#000" points="163 -208 163 -260 333 -260 333 -208 163 -208"/></g><g id="node1" class="node"><title>AppHeadersComponent</title><polygon fill="#ffffb3" stroke="#000" points="323.795 -122 172.205 -122 172.205 -86 323.795 -86 323.795 -122"/><text x="248" y="-99.8" fill="#000" font-family="Times,serif" font-size="14" text-anchor="middle">AppHeadersComponent</text></g><g id="node2" class="node"><title>AppHeadersModule</title><polygon fill="#8dd3c7" stroke="#000" points="312.513 -187 309.513 -191 288.513 -191 285.513 -187 183.487 -187 183.487 -151 312.513 -151 312.513 -187"/><text x="248" y="-164.8" fill="#000" font-family="Times,serif" font-size="14" text-anchor="middle">AppHeadersModule</text></g><g id="edge1" class="edge"><title>AppHeadersComponent-&gt;AppHeadersModule</title><path fill="none" stroke="#000" d="M248,-122.1061C248,-122.1061 248,-140.991 248,-140.991"/><polygon fill="#000" stroke="#000" points="244.5 -140.991 248 -150.991 251.5 -140.991 244.5 -140.991"/></g><g id="node3" class="node"><title>AppHeadersComponent</title><polygon fill="#fb8072" stroke="#000" points="325.295 -252 170.705 -252 170.705 -216 325.295 -216 325.295 -252"/><text x="248" y="-229.8" fill="#000" font-family="Times,serif" font-size="14" text-anchor="middle">AppHeadersComponent</text></g><g id="edge2" class="edge"><title>AppHeadersModule-&gt;AppHeadersComponent</title><path fill="none" stroke="#000" stroke-dasharray="5 2" d="M248,-187.1061C248,-187.1061 248,-205.991 248,-205.991"/><polygon fill="#000" stroke="#000" points="244.5 -205.991 248 -215.991 251.5 -205.991 244.5 -205.991"/></g></g></svg>