<svg xmlns="http://www.w3.org/2000/svg" xmlns:xlink="http://www.w3.org/1999/xlink" width="4765pt" height="211pt" viewBox="0 0 4765 211"><g id="graph0" class="graph" transform="scale(1 1) rotate(0) translate(4 207)"><title>dependencies</title><polygon fill="#fff" stroke="transparent" points="-4 4 -4 -207 4761 -207 4761 4 -4 4"/><text x="2357.509" y="-42.4" fill="#000" font-family="sans-serif" font-size="14" font-weight="bold" text-anchor="start">Legend</text><polygon fill="#ffffb3" stroke="transparent" points="2144.5 -10 2144.5 -30 2164.5 -30 2164.5 -10 2144.5 -10"/><text x="2168.129" y="-15.4" fill="#000" font-family="sans-serif" font-size="14" text-anchor="start">Declarations</text><polygon fill="#8dd3c7" stroke="transparent" points="2257.5 -10 2257.5 -30 2277.5 -30 2277.5 -10 2257.5 -10"/><text x="2281.225" y="-15.4" fill="#000" font-family="sans-serif" font-size="14" text-anchor="start">Module</text><polygon fill="#80b1d3" stroke="transparent" points="2343.5 -10 2343.5 -30 2363.5 -30 2363.5 -10 2343.5 -10"/><text x="2367.281" y="-15.4" fill="#000" font-family="sans-serif" font-size="14" text-anchor="start">Bootstrap</text><polygon fill="#fdb462" stroke="transparent" points="2440.5 -10 2440.5 -30 2460.5 -30 2460.5 -10 2440.5 -10"/><text x="2464.173" y="-15.4" fill="#000" font-family="sans-serif" font-size="14" text-anchor="start">Providers</text><polygon fill="#fb8072" stroke="transparent" points="2536.5 -10 2536.5 -30 2556.5 -30 2556.5 -10 2536.5 -10"/><text x="2560.226" y="-15.4" fill="#000" font-family="sans-serif" font-size="14" text-anchor="start">Exports</text><g id="clust1" class="cluster"><title>cluster_Vnas2SettingsModule</title><polygon fill="none" stroke="#000" stroke-dasharray="1 5" points="8 -70 8 -195 4749 -195 4749 -70 8 -70"/></g><g id="clust2" class="cluster"><title>cluster_Vnas2SettingsModule_declarations</title><polygon fill="none" stroke="#000" points="1326 -78 1326 -130 4741 -130 4741 -78 1326 -78"/></g><g id="clust17" class="cluster"><title>cluster_Vnas2SettingsModule_imports</title><polygon fill="none" stroke="#000" points="300 -78 300 -130 1318 -130 1318 -78 300 -78"/></g><g id="clust20" class="cluster"><title>cluster_Vnas2SettingsModule_providers</title><polygon fill="none" stroke="#000" points="16 -78 16 -130 292 -130 292 -78 16 -78"/></g><g id="node1" class="node"><title>AppSettingsConfirmComponent</title><polygon fill="#ffffb3" stroke="#000" points="4732.992 -122 4535.008 -122 4535.008 -86 4732.992 -86 4732.992 -122"/><text x="4634" y="-99.8" fill="#000" font-family="Times,serif" font-size="14" text-anchor="middle">AppSettingsConfirmComponent</text></g><g id="node15" class="node"><title>Vnas2SettingsModule</title><polygon fill="#8dd3c7" stroke="#000" points="2321.43 -187 2318.43 -191 2297.43 -191 2294.43 -187 2180.57 -187 2180.57 -151 2321.43 -151 2321.43 -187"/><text x="2251" y="-164.8" fill="#000" font-family="Times,serif" font-size="14" text-anchor="middle">Vnas2SettingsModule</text></g><g id="edge1" class="edge"><title>AppSettingsConfirmComponent-&gt;Vnas2SettingsModule</title><path fill="none" stroke="#000" d="M4634,-122.1532C4634,-145.7566 4634,-184 4634,-184 4634,-184 2331.3497,-184 2331.3497,-184"/><polygon fill="#000" stroke="#000" points="2331.35 -180.5 2321.35 -184 2331.35 -187.5 2331.35 -180.5"/></g><g id="node2" class="node"><title>Vnas2SettingsComponent</title><polygon fill="#ffffb3" stroke="#000" points="4517.212 -122 4354.788 -122 4354.788 -86 4517.212 -86 4517.212 -122"/><text x="4436" y="-99.8" fill="#000" font-family="Times,serif" font-size="14" text-anchor="middle">Vnas2SettingsComponent</text></g><g id="edge2" class="edge"><title>Vnas2SettingsComponent-&gt;Vnas2SettingsModule</title><path fill="none" stroke="#000" d="M4436,-122.2479C4436,-145.0179 4436,-181 4436,-181 4436,-181 2331.2241,-181 2331.2241,-181"/><polygon fill="#000" stroke="#000" points="2331.224 -177.5 2321.224 -181 2331.224 -184.5 2331.224 -177.5"/></g><g id="node3" class="node"><title>Vnas2SettingsDomainConfirmDeleteComponent</title><polygon fill="#ffffb3" stroke="#000" points="4336.785 -122 4045.215 -122 4045.215 -86 4336.785 -86 4336.785 -122"/><text x="4191" y="-99.8" fill="#000" font-family="Times,serif" font-size="14" text-anchor="middle">Vnas2SettingsDomainConfirmDeleteComponent</text></g><g id="edge3" class="edge"><title>Vnas2SettingsDomainConfirmDeleteComponent-&gt;Vnas2SettingsModule</title><path fill="none" stroke="#000" d="M4191,-122.2921C4191,-144.2057 4191,-178 4191,-178 4191,-178 2331.4796,-178 2331.4796,-178"/><polygon fill="#000" stroke="#000" points="2331.48 -174.5 2321.48 -178 2331.48 -181.5 2331.48 -174.5"/></g><g id="node4" class="node"><title>Vnas2SettingsDomainFormComponent</title><polygon fill="#ffffb3" stroke="#000" points="4027.648 -122 3790.352 -122 3790.352 -86 4027.648 -86 4027.648 -122"/><text x="3909" y="-99.8" fill="#000" font-family="Times,serif" font-size="14" text-anchor="middle">Vnas2SettingsDomainFormComponent</text></g><g id="edge4" class="edge"><title>Vnas2SettingsDomainFormComponent-&gt;Vnas2SettingsModule</title><path fill="none" stroke="#000" d="M3909,-122.0267C3909,-142.7672 3909,-174 3909,-174 3909,-174 2331.4473,-174 2331.4473,-174"/><polygon fill="#000" stroke="#000" points="2331.447 -170.5 2321.447 -174 2331.447 -177.5 2331.447 -170.5"/></g><g id="node5" class="node"><title>Vnas2SettingsFormComponent</title><polygon fill="#ffffb3" stroke="#000" points="3772.046 -122 3579.954 -122 3579.954 -86 3772.046 -86 3772.046 -122"/><text x="3676" y="-99.8" fill="#000" font-family="Times,serif" font-size="14" text-anchor="middle">Vnas2SettingsFormComponent</text></g><g id="edge5" class="edge"><title>Vnas2SettingsFormComponent-&gt;Vnas2SettingsModule</title><path fill="none" stroke="#000" d="M3676,-122.308C3676,-142.1455 3676,-171 3676,-171 3676,-171 2331.666,-171 2331.666,-171"/><polygon fill="#000" stroke="#000" points="2331.666 -167.5 2321.666 -171 2331.666 -174.5 2331.666 -167.5"/></g><g id="node6" class="node"><title>Vnas2SettingsLayoutComponent</title><polygon fill="#ffffb3" stroke="#000" points="3561.87 -122 3360.13 -122 3360.13 -86 3561.87 -86 3561.87 -122"/><text x="3461" y="-99.8" fill="#000" font-family="Times,serif" font-size="14" text-anchor="middle">Vnas2SettingsLayoutComponent</text></g><g id="edge6" class="edge"><title>Vnas2SettingsLayoutComponent-&gt;Vnas2SettingsModule</title><path fill="none" stroke="#000" d="M3461,-122.1686C3461,-141.0898 3461,-168 3461,-168 3461,-168 2331.2848,-168 2331.2848,-168"/><polygon fill="#000" stroke="#000" points="2331.285 -164.5 2321.285 -168 2331.285 -171.5 2331.285 -164.5"/></g><g id="node7" class="node"><title>Vnas2SettingsListItemComponent</title><polygon fill="#ffffb3" stroke="#000" points="3341.647 -122 3132.353 -122 3132.353 -86 3341.647 -86 3341.647 -122"/><text x="3237" y="-99.8" fill="#000" font-family="Times,serif" font-size="14" text-anchor="middle">Vnas2SettingsListItemComponent</text></g><g id="edge7" class="edge"><title>Vnas2SettingsListItemComponent-&gt;Vnas2SettingsModule</title><path fill="none" stroke="#000" d="M3237,-122.302C3237,-140.2699 3237,-165 3237,-165 3237,-165 2331.515,-165 2331.515,-165"/><polygon fill="#000" stroke="#000" points="2331.515 -161.5 2321.515 -165 2331.515 -168.5 2331.515 -161.5"/></g><g id="node8" class="node"><title>Vnas2SettingsListSocialObjectsComponent</title><polygon fill="#ffffb3" stroke="#000" points="3113.745 -122 2852.255 -122 2852.255 -86 3113.745 -86 3113.745 -122"/><text x="2983" y="-99.8" fill="#000" font-family="Times,serif" font-size="14" text-anchor="middle">Vnas2SettingsListSocialObjectsComponent</text></g><g id="edge8" class="edge"><title>Vnas2SettingsListSocialObjectsComponent-&gt;Vnas2SettingsModule</title><path fill="none" stroke="#000" d="M2983,-122.0352C2983,-138.7344 2983,-161 2983,-161 2983,-161 2331.5195,-161 2331.5195,-161"/><polygon fill="#000" stroke="#000" points="2331.519 -157.5 2321.519 -161 2331.519 -164.5 2331.519 -157.5"/></g><g id="node9" class="node"><title>Vnas2SettingsMenuComponent</title><polygon fill="#ffffb3" stroke="#000" points="2834.371 -122 2639.629 -122 2639.629 -86 2834.371 -86 2834.371 -122"/><text x="2737" y="-99.8" fill="#000" font-family="Times,serif" font-size="14" text-anchor="middle">Vnas2SettingsMenuComponent</text></g><g id="edge9" class="edge"><title>Vnas2SettingsMenuComponent-&gt;Vnas2SettingsModule</title><path fill="none" stroke="#000" d="M2737,-122.2819C2737,-137.9478 2737,-158 2737,-158 2737,-158 2331.4089,-158 2331.4089,-158"/><polygon fill="#000" stroke="#000" points="2331.409 -154.5 2321.409 -158 2331.409 -161.5 2331.409 -154.5"/></g><g id="node10" class="node"><title>Vnas2SettingsNewsBasketComponent</title><polygon fill="#ffffb3" stroke="#000" points="2621.185 -122 2388.815 -122 2388.815 -86 2621.185 -86 2621.185 -122"/><text x="2505" y="-99.8" fill="#000" font-family="Times,serif" font-size="14" text-anchor="middle">Vnas2SettingsNewsBasketComponent</text></g><g id="edge10" class="edge"><title>Vnas2SettingsNewsBasketComponent-&gt;Vnas2SettingsModule</title><path fill="none" stroke="#000" d="M2505,-122.1243C2505,-136.7832 2505,-155 2505,-155 2505,-155 2331.4159,-155 2331.4159,-155"/><polygon fill="#000" stroke="#000" points="2331.416 -151.5 2321.416 -155 2331.416 -158.5 2331.416 -151.5"/></g><g id="node11" class="node"><title>Vnas2SettingsNewsDomainComponent</title><polygon fill="#ffffb3" stroke="#000" points="2370.687 -122 2131.313 -122 2131.313 -86 2370.687 -86 2370.687 -122"/><text x="2251" y="-99.8" fill="#000" font-family="Times,serif" font-size="14" text-anchor="middle">Vnas2SettingsNewsDomainComponent</text></g><g id="edge11" class="edge"><title>Vnas2SettingsNewsDomainComponent-&gt;Vnas2SettingsModule</title><path fill="none" stroke="#000" d="M2251,-122.1061C2251,-122.1061 2251,-140.991 2251,-140.991"/><polygon fill="#000" stroke="#000" points="2247.5 -140.991 2251 -150.991 2254.5 -140.991 2247.5 -140.991"/></g><g id="node12" class="node"><title>Vnas2SettingsSocialObjectComponent</title><polygon fill="#ffffb3" stroke="#000" points="2113.022 -122 1878.978 -122 1878.978 -86 2113.022 -86 2113.022 -122"/><text x="1996" y="-99.8" fill="#000" font-family="Times,serif" font-size="14" text-anchor="middle">Vnas2SettingsSocialObjectComponent</text></g><g id="edge12" class="edge"><title>Vnas2SettingsSocialObjectComponent-&gt;Vnas2SettingsModule</title><path fill="none" stroke="#000" d="M1996,-122.1243C1996,-136.7832 1996,-155 1996,-155 1996,-155 2170.6451,-155 2170.6451,-155"/><polygon fill="#000" stroke="#000" points="2170.645 -158.5 2180.645 -155 2170.645 -151.5 2170.645 -158.5"/></g><g id="node13" class="node"><title>Vnas2SettingsSocialObjectFormComponent</title><polygon fill="#ffffb3" stroke="#000" points="1860.356 -122 1595.644 -122 1595.644 -86 1860.356 -86 1860.356 -122"/><text x="1728" y="-99.8" fill="#000" font-family="Times,serif" font-size="14" text-anchor="middle">Vnas2SettingsSocialObjectFormComponent</text></g><g id="edge13" class="edge"><title>Vnas2SettingsSocialObjectFormComponent-&gt;Vnas2SettingsModule</title><path fill="none" stroke="#000" d="M1728,-122.2819C1728,-137.9478 1728,-158 1728,-158 1728,-158 2170.7374,-158 2170.7374,-158"/><polygon fill="#000" stroke="#000" points="2170.738 -161.5 2180.737 -158 2170.737 -154.5 2170.738 -161.5"/></g><g id="node14" class="node"><title>Vnas2SettingsTableTreeableComponent</title><polygon fill="#ffffb3" stroke="#000" points="1577.546 -122 1334.454 -122 1334.454 -86 1577.546 -86 1577.546 -122"/><text x="1456" y="-99.8" fill="#000" font-family="Times,serif" font-size="14" text-anchor="middle">Vnas2SettingsTableTreeableComponent</text></g><g id="edge14" class="edge"><title>Vnas2SettingsTableTreeableComponent-&gt;Vnas2SettingsModule</title><path fill="none" stroke="#000" d="M1456,-122.0352C1456,-138.7344 1456,-161 1456,-161 1456,-161 2170.4491,-161 2170.4491,-161"/><polygon fill="#000" stroke="#000" points="2170.449 -164.5 2180.449 -161 2170.449 -157.5 2170.449 -164.5"/></g><g id="node16" class="node"><title>AppDialogModule</title><polygon fill="#8dd3c7" stroke="#000" points="1309.759 -122 1306.759 -126 1285.759 -126 1282.759 -122 1188.241 -122 1188.241 -86 1309.759 -86 1309.759 -122"/><text x="1249" y="-99.8" fill="#000" font-family="Times,serif" font-size="14" text-anchor="middle">AppDialogModule</text></g><g id="edge15" class="edge"><title>AppDialogModule-&gt;Vnas2SettingsModule</title><path fill="none" stroke="#000" d="M1249,-122.302C1249,-140.2699 1249,-165 1249,-165 1249,-165 2170.5413,-165 2170.5413,-165"/><polygon fill="#000" stroke="#000" points="2170.541 -168.5 2180.541 -165 2170.541 -161.5 2170.541 -168.5"/></g><g id="node17" class="node"><title>AppTwoColumnsLayoutsModule</title><polygon fill="#8dd3c7" stroke="#000" points="1170.48 -122 1167.48 -126 1146.48 -126 1143.48 -122 965.52 -122 965.52 -86 1170.48 -86 1170.48 -122"/><text x="1068" y="-99.8" fill="#000" font-family="Times,serif" font-size="14" text-anchor="middle">AppTwoColumnsLayoutsModule</text></g><g id="edge16" class="edge"><title>AppTwoColumnsLayoutsModule-&gt;Vnas2SettingsModule</title><path fill="none" stroke="#000" d="M1068,-122.1686C1068,-141.0898 1068,-168 1068,-168 1068,-168 2170.5407,-168 2170.5407,-168"/><polygon fill="#000" stroke="#000" points="2170.541 -171.5 2180.541 -168 2170.541 -164.5 2170.541 -171.5"/></g><g id="node18" class="node"><title>MaterialModule</title><polygon fill="#8dd3c7" stroke="#000" points="947.471 -122 944.471 -126 923.471 -126 920.471 -122 840.529 -122 840.529 -86 947.471 -86 947.471 -122"/><text x="894" y="-99.8" fill="#000" font-family="Times,serif" font-size="14" text-anchor="middle">MaterialModule</text></g><g id="edge17" class="edge"><title>MaterialModule-&gt;Vnas2SettingsModule</title><path fill="none" stroke="#000" d="M894,-122.308C894,-142.1455 894,-171 894,-171 894,-171 2170.4265,-171 2170.4265,-171"/><polygon fill="#000" stroke="#000" points="2170.427 -174.5 2180.427 -171 2170.427 -167.5 2170.427 -174.5"/></g><g id="node19" class="node"><title>NotificationModule</title><polygon fill="#8dd3c7" stroke="#000" points="822.699 -122 819.699 -126 798.699 -126 795.699 -122 695.301 -122 695.301 -86 822.699 -86 822.699 -122"/><text x="759" y="-99.8" fill="#000" font-family="Times,serif" font-size="14" text-anchor="middle">NotificationModule</text></g><g id="edge18" class="edge"><title>NotificationModule-&gt;Vnas2SettingsModule</title><path fill="none" stroke="#000" d="M759,-122.0267C759,-142.7672 759,-174 759,-174 759,-174 2170.541,-174 2170.541,-174"/><polygon fill="#000" stroke="#000" points="2170.541 -177.5 2180.541 -174 2170.541 -170.5 2170.541 -177.5"/></g><g id="node20" class="node"><title>Vnas2SettingsRoutingModule</title><polygon fill="#8dd3c7" stroke="#000" points="677.548 -122 674.548 -126 653.548 -126 650.548 -122 492.452 -122 492.452 -86 677.548 -86 677.548 -122"/><text x="585" y="-99.8" fill="#000" font-family="Times,serif" font-size="14" text-anchor="middle">Vnas2SettingsRoutingModule</text></g><g id="edge19" class="edge"><title>Vnas2SettingsRoutingModule-&gt;Vnas2SettingsModule</title><path fill="none" stroke="#000" d="M585,-122.2921C585,-144.2057 585,-178 585,-178 585,-178 2170.7431,-178 2170.7431,-178"/><polygon fill="#000" stroke="#000" points="2170.743 -181.5 2180.743 -178 2170.743 -174.5 2170.743 -181.5"/></g><g id="node21" class="node"><title>Vnas2UiCommonsModule</title><polygon fill="#8dd3c7" stroke="#000" points="474.375 -122 471.375 -126 450.375 -126 447.375 -122 307.625 -122 307.625 -86 474.375 -86 474.375 -122"/><text x="391" y="-99.8" fill="#000" font-family="Times,serif" font-size="14" text-anchor="middle">Vnas2UiCommonsModule</text></g><g id="edge20" class="edge"><title>Vnas2UiCommonsModule-&gt;Vnas2SettingsModule</title><path fill="none" stroke="#000" d="M391,-122.2479C391,-145.0179 391,-181 391,-181 391,-181 2170.6387,-181 2170.6387,-181"/><polygon fill="#000" stroke="#000" points="2170.639 -184.5 2180.639 -181 2170.639 -177.5 2170.639 -184.5"/></g><g id="node22" class="node"><title>Vnas2SettingsSandboxService</title><ellipse cx="154" cy="-104" fill="#fdb462" stroke="#000" rx="129.657" ry="18"/><text x="154" y="-99.8" fill="#000" font-family="Times,serif" font-size="14" text-anchor="middle">Vnas2SettingsSandboxService</text></g><g id="edge21" class="edge"><title>Vnas2SettingsSandboxService-&gt;Vnas2SettingsModule</title><path fill="none" stroke="#000" d="M154,-122.1532C154,-145.7566 154,-184 154,-184 154,-184 2170.6294,-184 2170.6294,-184"/><polygon fill="#000" stroke="#000" points="2170.63 -187.5 2180.629 -184 2170.629 -180.5 2170.63 -187.5"/></g></g></svg>