<svg xmlns="http://www.w3.org/2000/svg" xmlns:xlink="http://www.w3.org/1999/xlink" width="672" height="284pt" viewBox="0 0 504 284"><g id="graph0" class="graph" transform="scale(1 1) rotate(0) translate(4 280)"><title>dependencies</title><polygon fill="#fff" stroke="transparent" points="-4 4 -4 -280 500 -280 500 4 -4 4"/><text x="227.009" y="-42.4" fill="#000" font-family="sans-serif" font-size="14" font-weight="bold" text-anchor="start">Legend</text><polygon fill="#ffffb3" stroke="transparent" points="14 -10 14 -30 34 -30 34 -10 14 -10"/><text x="37.629" y="-15.4" fill="#000" font-family="sans-serif" font-size="14" text-anchor="start">Declarations</text><polygon fill="#8dd3c7" stroke="transparent" points="127 -10 127 -30 147 -30 147 -10 127 -10"/><text x="150.725" y="-15.4" fill="#000" font-family="sans-serif" font-size="14" text-anchor="start">Module</text><polygon fill="#80b1d3" stroke="transparent" points="213 -10 213 -30 233 -30 233 -10 213 -10"/><text x="236.781" y="-15.4" fill="#000" font-family="sans-serif" font-size="14" text-anchor="start">Bootstrap</text><polygon fill="#fdb462" stroke="transparent" points="310 -10 310 -30 330 -30 330 -10 310 -10"/><text x="333.673" y="-15.4" fill="#000" font-family="sans-serif" font-size="14" text-anchor="start">Providers</text><polygon fill="#fb8072" stroke="transparent" points="406 -10 406 -30 426 -30 426 -10 406 -10"/><text x="429.726" y="-15.4" fill="#000" font-family="sans-serif" font-size="14" text-anchor="start">Exports</text><g id="clust1" class="cluster"><title>cluster_AppLoaderModule</title><polygon fill="none" stroke="#000" stroke-dasharray="1 5" points="30.5 -70 30.5 -268 465.5 -268 465.5 -70 30.5 -70"/></g><g id="clust2" class="cluster"><title>cluster_AppLoaderModule_declarations</title><polygon fill="none" stroke="#000" points="42.5 -78 42.5 -130 454.5 -130 454.5 -78 42.5 -78"/></g><g id="clust6" class="cluster"><title>cluster_AppLoaderModule_exports</title><polygon fill="none" stroke="#000" points="38.5 -208 38.5 -260 457.5 -260 457.5 -208 38.5 -208"/></g><g id="node1" class="node"><title>AppContentLoaderComponent</title><polygon fill="#ffffb3" stroke="#000" points="446.414 -122 256.586 -122 256.586 -86 446.414 -86 446.414 -122"/><text x="351.5" y="-99.8" fill="#000" font-family="Times,serif" font-size="14" text-anchor="middle">AppContentLoaderComponent</text></g><g id="node3" class="node"><title>AppLoaderModule</title><polygon fill="#8dd3c7" stroke="#000" points="207.299 -187 204.299 -191 183.299 -191 180.299 -187 83.701 -187 83.701 -151 207.299 -151 207.299 -187"/><text x="145.5" y="-164.8" fill="#000" font-family="Times,serif" font-size="14" text-anchor="middle">AppLoaderModule</text></g><g id="edge1" class="edge"><title>AppContentLoaderComponent-&gt;AppLoaderModule</title><path fill="none" stroke="#000" d="M383.1523,-122.0225C383.1523,-139.3734 383.1523,-163 383.1523,-163 383.1523,-163 217.32,-163 217.32,-163"/><polygon fill="#000" stroke="#000" points="217.32 -159.5 207.32 -163 217.32 -166.5 217.32 -159.5"/></g><g id="node2" class="node"><title>AppSpinnerLoaderComponent</title><polygon fill="#ffffb3" stroke="#000" points="238.63 -122 50.37 -122 50.37 -86 238.63 -86 238.63 -122"/><text x="144.5" y="-99.8" fill="#000" font-family="Times,serif" font-size="14" text-anchor="middle">AppSpinnerLoaderComponent</text></g><g id="edge2" class="edge"><title>AppSpinnerLoaderComponent-&gt;AppLoaderModule</title><path fill="none" stroke="#000" d="M145.5,-122.1061C145.5,-122.1061 145.5,-140.991 145.5,-140.991"/><polygon fill="#000" stroke="#000" points="142 -140.991 145.5 -150.991 149 -140.991 142 -140.991"/></g><g id="node4" class="node"><title>AppContentLoaderComponent</title><polygon fill="#fb8072" stroke="#000" points="449.914 -252 257.086 -252 257.086 -216 449.914 -216 449.914 -252"/><text x="353.5" y="-229.8" fill="#000" font-family="Times,serif" font-size="14" text-anchor="middle">AppContentLoaderComponent</text></g><g id="edge3" class="edge"><title>AppLoaderModule-&gt;AppContentLoaderComponent</title><path fill="none" stroke="#000" stroke-dasharray="5 2" d="M207.5482,-175C257.7326,-175 320.0977,-175 320.0977,-175 320.0977,-175 320.0977,-205.9775 320.0977,-205.9775"/><polygon fill="#000" stroke="#000" points="316.598 -205.977 320.098 -215.977 323.598 -205.977 316.598 -205.977"/></g><g id="node5" class="node"><title>AppSpinnerLoaderComponent</title><polygon fill="#fb8072" stroke="#000" points="238.63 -252 46.37 -252 46.37 -216 238.63 -216 238.63 -252"/><text x="142.5" y="-229.8" fill="#000" font-family="Times,serif" font-size="14" text-anchor="middle">AppSpinnerLoaderComponent</text></g><g id="edge4" class="edge"><title>AppLoaderModule-&gt;AppSpinnerLoaderComponent</title><path fill="none" stroke="#000" stroke-dasharray="5 2" d="M145.5,-187.1061C145.5,-187.1061 145.5,-205.991 145.5,-205.991"/><polygon fill="#000" stroke="#000" points="142 -205.991 145.5 -215.991 149 -205.991 142 -205.991"/></g></g></svg>