<svg xmlns="http://www.w3.org/2000/svg" xmlns:xlink="http://www.w3.org/1999/xlink" width="672" height="211pt" viewBox="0 0 504 211"><g id="graph0" class="graph" transform="scale(1 1) rotate(0) translate(4 207)"><title>dependencies</title><polygon fill="#fff" stroke="transparent" points="-4 4 -4 -207 500 -207 500 4 -4 4"/><text x="227.009" y="-42.4" fill="#000" font-family="sans-serif" font-size="14" font-weight="bold" text-anchor="start">Legend</text><polygon fill="#ffffb3" stroke="transparent" points="14 -10 14 -30 34 -30 34 -10 14 -10"/><text x="37.629" y="-15.4" fill="#000" font-family="sans-serif" font-size="14" text-anchor="start">Declarations</text><polygon fill="#8dd3c7" stroke="transparent" points="127 -10 127 -30 147 -30 147 -10 127 -10"/><text x="150.725" y="-15.4" fill="#000" font-family="sans-serif" font-size="14" text-anchor="start">Module</text><polygon fill="#80b1d3" stroke="transparent" points="213 -10 213 -30 233 -30 233 -10 213 -10"/><text x="236.781" y="-15.4" fill="#000" font-family="sans-serif" font-size="14" text-anchor="start">Bootstrap</text><polygon fill="#fdb462" stroke="transparent" points="310 -10 310 -30 330 -30 330 -10 310 -10"/><text x="333.673" y="-15.4" fill="#000" font-family="sans-serif" font-size="14" text-anchor="start">Providers</text><polygon fill="#fb8072" stroke="transparent" points="406 -10 406 -30 426 -30 426 -10 406 -10"/><text x="429.726" y="-15.4" fill="#000" font-family="sans-serif" font-size="14" text-anchor="start">Exports</text><g id="clust1" class="cluster"><title>cluster_NotificationModule</title><polygon fill="none" stroke="#000" stroke-dasharray="1 5" points="74 -70 74 -195 422 -195 422 -70 74 -70"/></g><g id="clust2" class="cluster"><title>cluster_NotificationModule_declarations</title><polygon fill="none" stroke="#000" points="262 -78 262 -130 414 -130 414 -78 262 -78"/></g><g id="clust7" class="cluster"><title>cluster_NotificationModule_providers</title><polygon fill="none" stroke="#000" points="82 -78 82 -130 254 -130 254 -78 82 -78"/></g><g id="node1" class="node"><title>SnackBarComponent</title><polygon fill="#ffffb3" stroke="#000" points="405.756 -122 270.244 -122 270.244 -86 405.756 -86 405.756 -122"/><text x="338" y="-99.8" fill="#000" font-family="Times,serif" font-size="14" text-anchor="middle">SnackBarComponent</text></g><g id="node2" class="node"><title>NotificationModule</title><polygon fill="#8dd3c7" stroke="#000" points="316.699 -187 313.699 -191 292.699 -191 289.699 -187 189.301 -187 189.301 -151 316.699 -151 316.699 -187"/><text x="253" y="-164.8" fill="#000" font-family="Times,serif" font-size="14" text-anchor="middle">NotificationModule</text></g><g id="edge1" class="edge"><title>SnackBarComponent-&gt;NotificationModule</title><path fill="none" stroke="#000" d="M293.3608,-122.1061C293.3608,-122.1061 293.3608,-140.991 293.3608,-140.991"/><polygon fill="#000" stroke="#000" points="289.861 -140.991 293.361 -150.991 296.861 -140.991 289.861 -140.991"/></g><g id="node3" class="node"><title>SnackBarService</title><ellipse cx="168" cy="-104" fill="#fdb462" stroke="#000" rx="77.565" ry="18"/><text x="168" y="-99.8" fill="#000" font-family="Times,serif" font-size="14" text-anchor="middle">SnackBarService</text></g><g id="edge2" class="edge"><title>SnackBarService-&gt;NotificationModule</title><path fill="none" stroke="#000" d="M217.4663,-118.104C217.4663,-118.104 217.4663,-140.7209 217.4663,-140.7209"/><polygon fill="#000" stroke="#000" points="213.966 -140.721 217.466 -150.721 220.966 -140.721 213.966 -140.721"/></g></g></svg>