<svg xmlns="http://www.w3.org/2000/svg" xmlns:xlink="http://www.w3.org/1999/xlink" width="848pt" height="284pt" viewBox="0 0 848 284"><g id="graph0" class="graph" transform="scale(1 1) rotate(0) translate(4 280)"><title>dependencies</title><polygon fill="#fff" stroke="transparent" points="-4 4 -4 -280 844 -280 844 4 -4 4"/><text x="399.009" y="-42.4" fill="#000" font-family="sans-serif" font-size="14" font-weight="bold" text-anchor="start">Legend</text><polygon fill="#ffffb3" stroke="transparent" points="186 -10 186 -30 206 -30 206 -10 186 -10"/><text x="209.629" y="-15.4" fill="#000" font-family="sans-serif" font-size="14" text-anchor="start">Declarations</text><polygon fill="#8dd3c7" stroke="transparent" points="299 -10 299 -30 319 -30 319 -10 299 -10"/><text x="322.725" y="-15.4" fill="#000" font-family="sans-serif" font-size="14" text-anchor="start">Module</text><polygon fill="#80b1d3" stroke="transparent" points="385 -10 385 -30 405 -30 405 -10 385 -10"/><text x="408.781" y="-15.4" fill="#000" font-family="sans-serif" font-size="14" text-anchor="start">Bootstrap</text><polygon fill="#fdb462" stroke="transparent" points="482 -10 482 -30 502 -30 502 -10 482 -10"/><text x="505.673" y="-15.4" fill="#000" font-family="sans-serif" font-size="14" text-anchor="start">Providers</text><polygon fill="#fb8072" stroke="transparent" points="578 -10 578 -30 598 -30 598 -10 578 -10"/><text x="601.726" y="-15.4" fill="#000" font-family="sans-serif" font-size="14" text-anchor="start">Exports</text><g id="clust1" class="cluster"><title>cluster_AppModule</title><polygon fill="none" stroke="#000" stroke-dasharray="1 5" points="8 -70 8 -268 832 -268 832 -70 8 -70"/></g><g id="clust2" class="cluster"><title>cluster_AppModule_declarations</title><polygon fill="none" stroke="#000" points="702 -78 702 -130 824 -130 824 -78 702 -78"/></g><g id="clust4" class="cluster"><title>cluster_AppModule_imports</title><polygon fill="none" stroke="#000" points="16 -78 16 -130 694 -130 694 -78 16 -78"/></g><g id="clust6" class="cluster"><title>cluster_AppModule_bootstrap</title><polygon fill="none" stroke="#000" points="352 -208 352 -260 476 -260 476 -208 352 -208"/></g><g id="node1" class="node"><title>AppComponent</title><polygon fill="#ffffb3" stroke="#000" points="815.94 -122 710.06 -122 710.06 -86 815.94 -86 815.94 -122"/><text x="763" y="-99.8" fill="#000" font-family="Times,serif" font-size="14" text-anchor="middle">AppComponent</text></g><g id="node2" class="node"><title>AppModule</title><polygon fill="#8dd3c7" stroke="#000" points="455.657 -187 452.657 -191 431.657 -191 428.657 -187 372.343 -187 372.343 -151 455.657 -151 455.657 -187"/><text x="414" y="-164.8" fill="#000" font-family="Times,serif" font-size="14" text-anchor="middle">AppModule</text></g><g id="edge1" class="edge"><title>AppComponent-&gt;AppModule</title><path fill="none" stroke="#000" d="M763,-122.2843C763,-143.3211 763,-175 763,-175 763,-175 465.7509,-175 465.7509,-175"/><polygon fill="#000" stroke="#000" points="465.751 -171.5 455.751 -175 465.751 -178.5 465.751 -171.5"/></g><g id="node8" class="node"><title>AppComponent</title><polygon fill="#80b1d3" stroke="#000" points="468.439 -252 359.561 -252 359.561 -216 468.439 -216 468.439 -252"/><text x="414" y="-229.8" fill="#000" font-family="Times,serif" font-size="14" text-anchor="middle">AppComponent</text></g><g id="edge7" class="edge"><title>AppModule-&gt;AppComponent</title><path fill="none" stroke="#000" stroke-dasharray="1 5" d="M414,-187.1061C414,-187.1061 414,-205.991 414,-205.991"/><polygon fill="#000" stroke="#000" points="410.5 -205.991 414 -215.991 417.5 -205.991 410.5 -205.991"/></g><g id="node3" class="node"><title>AppLoaderModule</title><polygon fill="#8dd3c7" stroke="#000" points="685.799 -122 682.799 -126 661.799 -126 658.799 -122 562.201 -122 562.201 -86 685.799 -86 685.799 -122"/><text x="624" y="-99.8" fill="#000" font-family="Times,serif" font-size="14" text-anchor="middle">AppLoaderModule</text></g><g id="edge2" class="edge"><title>AppLoaderModule-&gt;AppModule</title><path fill="none" stroke="#000" d="M624,-122.0225C624,-139.3734 624,-163 624,-163 624,-163 465.7403,-163 465.7403,-163"/><polygon fill="#000" stroke="#000" points="465.74 -159.5 455.74 -163 465.74 -166.5 465.74 -159.5"/></g><g id="node4" class="node"><title>AppRoutingModule</title><polygon fill="#8dd3c7" stroke="#000" points="544.274 -122 541.274 -126 520.274 -126 517.274 -122 415.726 -122 415.726 -86 544.274 -86 544.274 -122"/><text x="480" y="-99.8" fill="#000" font-family="Times,serif" font-size="14" text-anchor="middle">AppRoutingModule</text></g><g id="edge3" class="edge"><title>AppRoutingModule-&gt;AppModule</title><path fill="none" stroke="#000" d="M435.7206,-122.1061C435.7206,-122.1061 435.7206,-140.991 435.7206,-140.991"/><polygon fill="#000" stroke="#000" points="432.221 -140.991 435.721 -150.991 439.221 -140.991 432.221 -140.991"/></g><g id="node5" class="node"><title>LoggerModule</title><polygon fill="#8dd3c7" stroke="#000" points="397.978 -122 394.978 -126 373.978 -126 370.978 -122 298.022 -122 298.022 -86 397.978 -86 397.978 -122"/><text x="348" y="-99.8" fill="#000" font-family="Times,serif" font-size="14" text-anchor="middle">LoggerModule</text></g><g id="edge4" class="edge"><title>LoggerModule-&gt;AppModule</title><path fill="none" stroke="#000" d="M385.0803,-122.1061C385.0803,-122.1061 385.0803,-140.991 385.0803,-140.991"/><polygon fill="#000" stroke="#000" points="381.58 -140.991 385.08 -150.991 388.58 -140.991 381.58 -140.991"/></g><g id="node6" class="node"><title>Vnas2ApiModule</title><polygon fill="#8dd3c7" stroke="#000" points="280.313 -122 277.313 -126 256.313 -126 253.313 -122 163.687 -122 163.687 -86 280.313 -86 280.313 -122"/><text x="222" y="-99.8" fill="#000" font-family="Times,serif" font-size="14" text-anchor="middle">Vnas2ApiModule</text></g><g id="edge5" class="edge"><title>Vnas2ApiModule-&gt;AppModule</title><path fill="none" stroke="#000" d="M222,-122.0225C222,-139.3734 222,-163 222,-163 222,-163 362.3389,-163 362.3389,-163"/><polygon fill="#000" stroke="#000" points="362.339 -166.5 372.339 -163 362.339 -159.5 362.339 -166.5"/></g><g id="node7" class="node"><title>Vnas2CoreModule</title><polygon fill="#8dd3c7" stroke="#000" points="146.028 -122 143.028 -126 122.028 -126 119.028 -122 23.972 -122 23.972 -86 146.028 -86 146.028 -122"/><text x="85" y="-99.8" fill="#000" font-family="Times,serif" font-size="14" text-anchor="middle">Vnas2CoreModule</text></g><g id="edge6" class="edge"><title>Vnas2CoreModule-&gt;AppModule</title><path fill="none" stroke="#000" d="M85,-122.2843C85,-143.3211 85,-175 85,-175 85,-175 362.3319,-175 362.3319,-175"/><polygon fill="#000" stroke="#000" points="362.332 -178.5 372.332 -175 362.332 -171.5 362.332 -178.5"/></g></g></svg>