<svg xmlns="http://www.w3.org/2000/svg" xmlns:xlink="http://www.w3.org/1999/xlink" width="672" height="211pt" viewBox="0 0 504 211"><g id="graph0" class="graph" transform="scale(1 1) rotate(0) translate(4 207)"><title>dependencies</title><polygon fill="#fff" stroke="transparent" points="-4 4 -4 -207 500 -207 500 4 -4 4"/><text x="227.009" y="-42.4" fill="#000" font-family="sans-serif" font-size="14" font-weight="bold" text-anchor="start">Legend</text><polygon fill="#ffffb3" stroke="transparent" points="14 -10 14 -30 34 -30 34 -10 14 -10"/><text x="37.629" y="-15.4" fill="#000" font-family="sans-serif" font-size="14" text-anchor="start">Declarations</text><polygon fill="#8dd3c7" stroke="transparent" points="127 -10 127 -30 147 -30 147 -10 127 -10"/><text x="150.725" y="-15.4" fill="#000" font-family="sans-serif" font-size="14" text-anchor="start">Module</text><polygon fill="#80b1d3" stroke="transparent" points="213 -10 213 -30 233 -30 233 -10 213 -10"/><text x="236.781" y="-15.4" fill="#000" font-family="sans-serif" font-size="14" text-anchor="start">Bootstrap</text><polygon fill="#fdb462" stroke="transparent" points="310 -10 310 -30 330 -30 330 -10 310 -10"/><text x="333.673" y="-15.4" fill="#000" font-family="sans-serif" font-size="14" text-anchor="start">Providers</text><polygon fill="#fb8072" stroke="transparent" points="406 -10 406 -30 426 -30 426 -10 406 -10"/><text x="429.726" y="-15.4" fill="#000" font-family="sans-serif" font-size="14" text-anchor="start">Exports</text><g id="clust1" class="cluster"><title>cluster_LayoutsModule</title><polygon fill="none" stroke="#000" stroke-dasharray="1 5" points="8 -70 8 -195 488 -195 488 -70 8 -70"/></g><g id="clust2" class="cluster"><title>cluster_LayoutsModule_declarations</title><polygon fill="none" stroke="#000" points="338 -78 338 -130 480 -130 480 -78 338 -78"/></g><g id="clust4" class="cluster"><title>cluster_LayoutsModule_imports</title><polygon fill="none" stroke="#000" points="16 -78 16 -130 330 -130 330 -78 16 -78"/></g><g id="node1" class="node"><title>LayoutsComponent</title><polygon fill="#ffffb3" stroke="#000" points="472.436 -122 345.564 -122 345.564 -86 472.436 -86 472.436 -122"/><text x="409" y="-99.8" fill="#000" font-family="Times,serif" font-size="14" text-anchor="middle">LayoutsComponent</text></g><g id="node2" class="node"><title>LayoutsModule</title><polygon fill="#8dd3c7" stroke="#000" points="309.153 -187 306.153 -191 285.153 -191 282.153 -187 204.847 -187 204.847 -151 309.153 -151 309.153 -187"/><text x="257" y="-164.8" fill="#000" font-family="Times,serif" font-size="14" text-anchor="middle">LayoutsModule</text></g><g id="edge1" class="edge"><title>LayoutsComponent-&gt;LayoutsModule</title><path fill="none" stroke="#000" d="M409,-122.1061C409,-141.3391 409,-169 409,-169 409,-169 319.3098,-169 319.3098,-169"/><polygon fill="#000" stroke="#000" points="319.31 -165.5 309.31 -169 319.31 -172.5 319.31 -165.5"/></g><g id="node3" class="node"><title>AppHeadersModule</title><polygon fill="#8dd3c7" stroke="#000" points="321.513 -122 318.513 -126 297.513 -126 294.513 -122 192.487 -122 192.487 -86 321.513 -86 321.513 -122"/><text x="257" y="-99.8" fill="#000" font-family="Times,serif" font-size="14" text-anchor="middle">AppHeadersModule</text></g><g id="edge2" class="edge"><title>AppHeadersModule-&gt;LayoutsModule</title><path fill="none" stroke="#000" d="M257,-122.1061C257,-122.1061 257,-140.991 257,-140.991"/><polygon fill="#000" stroke="#000" points="253.5 -140.991 257 -150.991 260.5 -140.991 253.5 -140.991"/></g><g id="node4" class="node"><title>LayoutsRoutingModule</title><polygon fill="#8dd3c7" stroke="#000" points="173.77 -122 170.77 -126 149.77 -126 146.77 -122 24.23 -122 24.23 -86 173.77 -86 173.77 -122"/><text x="99" y="-99.8" fill="#000" font-family="Times,serif" font-size="14" text-anchor="middle">LayoutsRoutingModule</text></g><g id="edge3" class="edge"><title>LayoutsRoutingModule-&gt;LayoutsModule</title><path fill="none" stroke="#000" d="M99,-122.1061C99,-141.3391 99,-169 99,-169 99,-169 194.827,-169 194.827,-169"/><polygon fill="#000" stroke="#000" points="194.827 -172.5 204.827 -169 194.827 -165.5 194.827 -172.5"/></g></g></svg>