<svg xmlns="http://www.w3.org/2000/svg" xmlns:xlink="http://www.w3.org/1999/xlink" width="2693pt" height="284pt" viewBox="0 0 2693 284"><g id="graph0" class="graph" transform="scale(1 1) rotate(0) translate(4 280)"><title>dependencies</title><polygon fill="#fff" stroke="transparent" points="-4 4 -4 -280 2689 -280 2689 4 -4 4"/><text x="1321.509" y="-42.4" fill="#000" font-family="sans-serif" font-size="14" font-weight="bold" text-anchor="start">Legend</text><polygon fill="#ffffb3" stroke="transparent" points="1108.5 -10 1108.5 -30 1128.5 -30 1128.5 -10 1108.5 -10"/><text x="1132.129" y="-15.4" fill="#000" font-family="sans-serif" font-size="14" text-anchor="start">Declarations</text><polygon fill="#8dd3c7" stroke="transparent" points="1221.5 -10 1221.5 -30 1241.5 -30 1241.5 -10 1221.5 -10"/><text x="1245.225" y="-15.4" fill="#000" font-family="sans-serif" font-size="14" text-anchor="start">Module</text><polygon fill="#80b1d3" stroke="transparent" points="1307.5 -10 1307.5 -30 1327.5 -30 1327.5 -10 1307.5 -10"/><text x="1331.281" y="-15.4" fill="#000" font-family="sans-serif" font-size="14" text-anchor="start">Bootstrap</text><polygon fill="#fdb462" stroke="transparent" points="1404.5 -10 1404.5 -30 1424.5 -30 1424.5 -10 1404.5 -10"/><text x="1428.173" y="-15.4" fill="#000" font-family="sans-serif" font-size="14" text-anchor="start">Providers</text><polygon fill="#fb8072" stroke="transparent" points="1500.5 -10 1500.5 -30 1520.5 -30 1520.5 -10 1500.5 -10"/><text x="1524.226" y="-15.4" fill="#000" font-family="sans-serif" font-size="14" text-anchor="start">Exports</text><g id="clust1" class="cluster"><title>cluster_Vnas2UiCommonsModule</title><polygon fill="none" stroke="#000" stroke-dasharray="1 5" points="8 -70 8 -268 2677 -268 2677 -70 8 -70"/></g><g id="clust2" class="cluster"><title>cluster_Vnas2UiCommonsModule_declarations</title><polygon fill="none" stroke="#000" points="146 -78 146 -130 2669 -130 2669 -78 146 -78"/></g><g id="clust17" class="cluster"><title>cluster_Vnas2UiCommonsModule_imports</title><polygon fill="none" stroke="#000" points="16 -78 16 -130 138 -130 138 -78 16 -78"/></g><g id="clust18" class="cluster"><title>cluster_Vnas2UiCommonsModule_exports</title><polygon fill="none" stroke="#000" points="58 -208 58 -260 2627 -260 2627 -208 58 -208"/></g><g id="node1" class="node"><title>CategoryOrganizationComponent</title><polygon fill="#ffffb3" stroke="#000" points="2660.732 -122 2455.268 -122 2455.268 -86 2660.732 -86 2660.732 -122"/><text x="2558" y="-99.8" fill="#000" font-family="Times,serif" font-size="14" text-anchor="middle">CategoryOrganizationComponent</text></g><g id="node15" class="node"><title>Vnas2UiCommonsModule</title><polygon fill="#8dd3c7" stroke="#000" points="1376.375 -187 1373.375 -191 1352.375 -191 1349.375 -187 1209.625 -187 1209.625 -151 1376.375 -151 1376.375 -187"/><text x="1293" y="-164.8" fill="#000" font-family="Times,serif" font-size="14" text-anchor="middle">Vnas2UiCommonsModule</text></g><g id="edge1" class="edge"><title>CategoryOrganizationComponent-&gt;Vnas2UiCommonsModule</title><path fill="none" stroke="#000" d="M2536.875,-122.1686C2536.875,-141.0898 2536.875,-168 2536.875,-168 2536.875,-168 1386.5456,-168 1386.5456,-168"/><polygon fill="#000" stroke="#000" points="1386.546 -164.5 1376.546 -168 1386.546 -171.5 1386.546 -164.5"/></g><g id="node2" class="node"><title>CountDatePipe</title><polygon fill="#ffffb3" stroke="#000" points="2436.542 -122 2335.458 -122 2335.458 -86 2436.542 -86 2436.542 -122"/><text x="2386" y="-99.8" fill="#000" font-family="Times,serif" font-size="14" text-anchor="middle">CountDatePipe</text></g><g id="edge2" class="edge"><title>CountDatePipe-&gt;Vnas2UiCommonsModule</title><path fill="none" stroke="#000" d="M2363.375,-122.302C2363.375,-140.2699 2363.375,-165 2363.375,-165 2363.375,-165 1386.5447,-165 1386.5447,-165"/><polygon fill="#000" stroke="#000" points="1386.545 -161.5 1376.545 -165 1386.545 -168.5 1386.545 -161.5"/></g><g id="node3" class="node"><title>DailyNewsComponent</title><polygon fill="#ffffb3" stroke="#000" points="2317.307 -122 2172.693 -122 2172.693 -86 2317.307 -86 2317.307 -122"/><text x="2245" y="-99.8" fill="#000" font-family="Times,serif" font-size="14" text-anchor="middle">DailyNewsComponent</text></g><g id="edge3" class="edge"><title>DailyNewsComponent-&gt;Vnas2UiCommonsModule</title><path fill="none" stroke="#000" d="M2220.875,-122.0225C2220.875,-139.3734 2220.875,-163 2220.875,-163 2220.875,-163 1386.5688,-163 1386.5688,-163"/><polygon fill="#000" stroke="#000" points="1386.569 -159.5 1376.569 -163 1386.569 -166.5 1386.569 -159.5"/></g><g id="node4" class="node"><title>DefaultImageDirective</title><polygon fill="#ffffb3" stroke="#000" points="2154.541 -122 2009.459 -122 2009.459 -86 2154.541 -86 2154.541 -122"/><text x="2082" y="-99.8" fill="#000" font-family="Times,serif" font-size="14" text-anchor="middle">DefaultImageDirective</text></g><g id="edge4" class="edge"><title>DefaultImageDirective-&gt;Vnas2UiCommonsModule</title><path fill="none" stroke="#000" d="M2056.375,-122.027C2056.375,-138.3976 2056.375,-160 2056.375,-160 2056.375,-160 1386.5126,-160 1386.5126,-160"/><polygon fill="#000" stroke="#000" points="1386.513 -156.5 1376.513 -160 1386.513 -163.5 1386.513 -156.5"/></g><g id="node5" class="node"><title>FormSearchNewsAdvancedComponent</title><polygon fill="#ffffb3" stroke="#000" points="1991.376 -122 1752.624 -122 1752.624 -86 1991.376 -86 1991.376 -122"/><text x="1872" y="-99.8" fill="#000" font-family="Times,serif" font-size="14" text-anchor="middle">FormSearchNewsAdvancedComponent</text></g><g id="edge5" class="edge"><title>FormSearchNewsAdvancedComponent-&gt;Vnas2UiCommonsModule</title><path fill="none" stroke="#000" d="M1844.875,-122.2396C1844.875,-137.5706 1844.875,-157 1844.875,-157 1844.875,-157 1386.5182,-157 1386.5182,-157"/><polygon fill="#000" stroke="#000" points="1386.518 -153.5 1376.518 -157 1386.518 -160.5 1386.518 -153.5"/></g><g id="node6" class="node"><title>HighLightActionsComponent</title><polygon fill="#ffffb3" stroke="#000" points="1734.71 -122 1551.29 -122 1551.29 -86 1734.71 -86 1734.71 -122"/><text x="1643" y="-99.8" fill="#000" font-family="Times,serif" font-size="14" text-anchor="middle">HighLightActionsComponent</text></g><g id="edge6" class="edge"><title>HighLightActionsComponent-&gt;Vnas2UiCommonsModule</title><path fill="none" stroke="#000" d="M1614.375,-122.0511C1614.375,-136.373 1614.375,-154 1614.375,-154 1614.375,-154 1386.5986,-154 1386.5986,-154"/><polygon fill="#000" stroke="#000" points="1386.599 -150.5 1376.599 -154 1386.599 -157.5 1386.599 -150.5"/></g><g id="node7" class="node"><title>ListObjectsComponent</title><polygon fill="#ffffb3" stroke="#000" points="1532.872 -122 1387.128 -122 1387.128 -86 1532.872 -86 1532.872 -122"/><text x="1460" y="-99.8" fill="#000" font-family="Times,serif" font-size="14" text-anchor="middle">ListObjectsComponent</text></g><g id="edge7" class="edge"><title>ListObjectsComponent-&gt;Vnas2UiCommonsModule</title><path fill="none" stroke="#000" d="M1386.9866,-104C1378.3581,-104 1372.5453,-104 1372.5453,-104 1372.5453,-104 1372.5453,-140.8939 1372.5453,-140.8939"/><polygon fill="#000" stroke="#000" points="1369.045 -140.894 1372.545 -150.894 1376.045 -140.894 1369.045 -140.894"/></g><g id="node8" class="node"><title>NewsBasketComponent</title><polygon fill="#ffffb3" stroke="#000" points="1368.806 -122 1217.194 -122 1217.194 -86 1368.806 -86 1368.806 -122"/><text x="1293" y="-99.8" fill="#000" font-family="Times,serif" font-size="14" text-anchor="middle">NewsBasketComponent</text></g><g id="edge8" class="edge"><title>NewsBasketComponent-&gt;Vnas2UiCommonsModule</title><path fill="none" stroke="#000" d="M1293,-122.1061C1293,-122.1061 1293,-140.991 1293,-140.991"/><polygon fill="#000" stroke="#000" points="1289.5 -140.991 1293 -150.991 1296.5 -140.991 1289.5 -140.991"/></g><g id="node9" class="node"><title>NewsSummaryComponent</title><polygon fill="#ffffb3" stroke="#000" points="1199.644 -122 1032.356 -122 1032.356 -86 1199.644 -86 1199.644 -122"/><text x="1116" y="-99.8" fill="#000" font-family="Times,serif" font-size="14" text-anchor="middle">NewsSummaryComponent</text></g><g id="edge9" class="edge"><title>NewsSummaryComponent-&gt;Vnas2UiCommonsModule</title><path fill="none" stroke="#000" d="M1199.9041,-104C1208.1014,-104 1213.4547,-104 1213.4547,-104 1213.4547,-104 1213.4547,-140.8939 1213.4547,-140.8939"/><polygon fill="#000" stroke="#000" points="1209.955 -140.894 1213.455 -150.894 1216.955 -140.894 1209.955 -140.894"/></g><g id="node10" class="node"><title>NewsWithDomainComponent</title><polygon fill="#ffffb3" stroke="#000" points="1014.303 -122 827.697 -122 827.697 -86 1014.303 -86 1014.303 -122"/><text x="921" y="-99.8" fill="#000" font-family="Times,serif" font-size="14" text-anchor="middle">NewsWithDomainComponent</text></g><g id="edge10" class="edge"><title>NewsWithDomainComponent-&gt;Vnas2UiCommonsModule</title><path fill="none" stroke="#000" d="M987.7898,-122.0511C987.7898,-136.373 987.7898,-154 987.7898,-154 987.7898,-154 1199.6,-154 1199.6,-154"/><polygon fill="#000" stroke="#000" points="1199.6 -157.5 1209.6 -154 1199.6 -150.5 1199.6 -157.5"/></g><g id="node11" class="node"><title>PagingCommonComponent</title><polygon fill="#ffffb3" stroke="#000" points="810.338 -122 637.662 -122 637.662 -86 810.338 -86 810.338 -122"/><text x="724" y="-99.8" fill="#000" font-family="Times,serif" font-size="14" text-anchor="middle">PagingCommonComponent</text></g><g id="edge11" class="edge"><title>PagingCommonComponent-&gt;Vnas2UiCommonsModule</title><path fill="none" stroke="#000" d="M782.1338,-122.2396C782.1338,-137.5706 782.1338,-157 782.1338,-157 782.1338,-157 1199.4984,-157 1199.4984,-157"/><polygon fill="#000" stroke="#000" points="1199.498 -160.5 1209.498 -157 1199.498 -153.5 1199.498 -160.5"/></g><g id="node12" class="node"><title>RenderDebugDirective</title><polygon fill="#ffffb3" stroke="#000" points="619.831 -122 474.17 -122 474.17 -86 619.831 -86 619.831 -122"/><text x="547" y="-99.8" fill="#000" font-family="Times,serif" font-size="14" text-anchor="middle">RenderDebugDirective</text></g><g id="edge12" class="edge"><title>RenderDebugDirective-&gt;Vnas2UiCommonsModule</title><path fill="none" stroke="#000" d="M589.9981,-122.027C589.9981,-138.3976 589.9981,-160 589.9981,-160 589.9981,-160 1199.5958,-160 1199.5958,-160"/><polygon fill="#000" stroke="#000" points="1199.596 -163.5 1209.596 -160 1199.596 -156.5 1199.596 -163.5"/></g><g id="node13" class="node"><title>SortByPipe</title><polygon fill="#ffffb3" stroke="#000" points="456.059 -122 375.941 -122 375.941 -86 456.059 -86 456.059 -122"/><text x="416" y="-99.8" fill="#000" font-family="Times,serif" font-size="14" text-anchor="middle">SortByPipe</text></g><g id="edge13" class="edge"><title>SortByPipe-&gt;Vnas2UiCommonsModule</title><path fill="none" stroke="#000" d="M424.307,-122.0225C424.307,-139.3734 424.307,-163 424.3069,-163 424.3069,-163 1199.3118,-163 1199.3118,-163"/><polygon fill="#000" stroke="#000" points="1199.312 -166.5 1209.312 -163 1199.312 -159.5 1199.312 -166.5"/></g><g id="node14" class="node"><title>TreeCategoryVerticalComponent</title><polygon fill="#ffffb3" stroke="#000" points="357.875 -122 154.125 -122 154.125 -86 357.875 -86 357.875 -122"/><text x="256" y="-99.8" fill="#000" font-family="Times,serif" font-size="14" text-anchor="middle">TreeCategoryVerticalComponent</text></g><g id="edge14" class="edge"><title>TreeCategoryVerticalComponent-&gt;Vnas2UiCommonsModule</title><path fill="none" stroke="#000" d="M323.8291,-122.302C323.8291,-140.2699 323.8291,-165 323.8291,-165 323.8291,-165 1199.5302,-165 1199.5302,-165"/><polygon fill="#000" stroke="#000" points="1199.53 -168.5 1209.53 -165 1199.53 -161.5 1199.53 -168.5"/></g><g id="node17" class="node"><title>CategoryOrganizationComponent</title><polygon fill="#fb8072" stroke="#000" points="2618.732 -252 2409.268 -252 2409.268 -216 2618.732 -216 2618.732 -252"/><text x="2514" y="-229.8" fill="#000" font-family="Times,serif" font-size="14" text-anchor="middle">CategoryOrganizationComponent</text></g><g id="edge16" class="edge"><title>Vnas2UiCommonsModule-&gt;CategoryOrganizationComponent</title><path fill="none" stroke="#000" stroke-dasharray="5 2" d="M1376.5562,-171C1637.9948,-171 2423.0773,-171 2423.0773,-171 2423.0773,-171 2423.0773,-205.7778 2423.0773,-205.7778"/><polygon fill="#000" stroke="#000" points="2419.577 -205.778 2423.077 -215.778 2426.577 -205.778 2419.577 -205.778"/></g><g id="node18" class="node"><title>CountDatePipe</title><polygon fill="#fb8072" stroke="#000" points="2391.541 -252 2286.459 -252 2286.459 -216 2391.541 -216 2391.541 -252"/><text x="2339" y="-229.8" fill="#000" font-family="Times,serif" font-size="14" text-anchor="middle">CountDatePipe</text></g><g id="edge17" class="edge"><title>Vnas2UiCommonsModule-&gt;CountDatePipe</title><path fill="none" stroke="#000" stroke-dasharray="5 2" d="M1376.414,-174C1618.1136,-174 2301.8165,-174 2301.8165,-174 2301.8165,-174 2301.8165,-205.998 2301.8165,-205.998"/><polygon fill="#000" stroke="#000" points="2298.316 -205.998 2301.816 -215.998 2305.316 -205.998 2298.316 -205.998"/></g><g id="node19" class="node"><title>DailyNewsComponent</title><polygon fill="#fb8072" stroke="#000" points="2268.807 -252 2121.193 -252 2121.193 -216 2268.807 -216 2268.807 -252"/><text x="2195" y="-229.8" fill="#000" font-family="Times,serif" font-size="14" text-anchor="middle">DailyNewsComponent</text></g><g id="edge18" class="edge"><title>Vnas2UiCommonsModule-&gt;DailyNewsComponent</title><path fill="none" stroke="#000" stroke-dasharray="5 2" d="M1376.7034,-176C1590.1123,-176 2137.8084,-176 2137.8084,-176 2137.8084,-176 2137.8084,-205.9664 2137.8084,-205.9664"/><polygon fill="#000" stroke="#000" points="2134.309 -205.966 2137.808 -215.966 2141.309 -205.966 2134.309 -205.966"/></g><g id="node20" class="node"><title>DefaultImageDirective</title><polygon fill="#fb8072" stroke="#000" points="2103.041 -252 1954.958 -252 1954.958 -216 2103.041 -216 2103.041 -252"/><text x="2029" y="-229.8" fill="#000" font-family="Times,serif" font-size="14" text-anchor="middle">DefaultImageDirective</text></g><g id="edge19" class="edge"><title>Vnas2UiCommonsModule-&gt;DefaultImageDirective</title><path fill="none" stroke="#000" stroke-dasharray="5 2" d="M1376.3763,-179C1557.9449,-179 1972.9588,-179 1972.9588,-179 1972.9588,-179 1972.9588,-205.9909 1972.9588,-205.9909"/><polygon fill="#000" stroke="#000" points="1969.459 -205.991 1972.959 -215.991 1976.459 -205.991 1969.459 -205.991"/></g><g id="node21" class="node"><title>FormSearchNewsAdvancedComponent</title><polygon fill="#fb8072" stroke="#000" points="1936.876 -252 1695.124 -252 1695.124 -216 1936.876 -216 1936.876 -252"/><text x="1816" y="-229.8" fill="#000" font-family="Times,serif" font-size="14" text-anchor="middle">FormSearchNewsAdvancedComponent</text></g><g id="edge20" class="edge"><title>Vnas2UiCommonsModule-&gt;FormSearchNewsAdvancedComponent</title><path fill="none" stroke="#000" stroke-dasharray="5 2" d="M1376.5928,-182C1499.5703,-182 1714.8336,-182 1714.8336,-182 1714.8336,-182 1714.8336,-205.8129 1714.8336,-205.8129"/><polygon fill="#000" stroke="#000" points="1711.334 -205.813 1714.834 -215.813 1718.334 -205.813 1711.334 -205.813"/></g><g id="node22" class="node"><title>HighLightActionsComponent</title><polygon fill="#fb8072" stroke="#000" points="1677.211 -252 1490.789 -252 1490.789 -216 1677.211 -216 1677.211 -252"/><text x="1584" y="-229.8" fill="#000" font-family="Times,serif" font-size="14" text-anchor="middle">HighLightActionsComponent</text></g><g id="edge21" class="edge"><title>Vnas2UiCommonsModule-&gt;HighLightActionsComponent</title><path fill="none" stroke="#000" stroke-dasharray="5 2" d="M1376.6518,-185C1438.4172,-185 1511.7905,-185 1511.7905,-185 1511.7905,-185 1511.7905,-205.7542 1511.7905,-205.7542"/><polygon fill="#000" stroke="#000" points="1508.291 -205.754 1511.791 -215.754 1515.291 -205.754 1508.291 -205.754"/></g><g id="node23" class="node"><title>ListObjectsComponent</title><polygon fill="#fb8072" stroke="#000" points="1472.873 -252 1323.127 -252 1323.127 -216 1472.873 -216 1472.873 -252"/><text x="1398" y="-229.8" fill="#000" font-family="Times,serif" font-size="14" text-anchor="middle">ListObjectsComponent</text></g><g id="edge22" class="edge"><title>Vnas2UiCommonsModule-&gt;ListObjectsComponent</title><path fill="none" stroke="#000" stroke-dasharray="5 2" d="M1349.8757,-187.1061C1349.8757,-187.1061 1349.8757,-205.991 1349.8757,-205.991"/><polygon fill="#000" stroke="#000" points="1346.376 -205.991 1349.876 -215.991 1353.376 -205.991 1346.376 -205.991"/></g><g id="node24" class="node"><title>NewsBasketComponent</title><polygon fill="#fb8072" stroke="#000" points="1305.306 -252 1150.694 -252 1150.694 -216 1305.306 -216 1305.306 -252"/><text x="1228" y="-229.8" fill="#000" font-family="Times,serif" font-size="14" text-anchor="middle">NewsBasketComponent</text></g><g id="edge23" class="edge"><title>Vnas2UiCommonsModule-&gt;NewsBasketComponent</title><path fill="none" stroke="#000" stroke-dasharray="5 2" d="M1257.4827,-187.1061C1257.4827,-187.1061 1257.4827,-205.991 1257.4827,-205.991"/><polygon fill="#000" stroke="#000" points="1253.983 -205.991 1257.483 -215.991 1260.983 -205.991 1253.983 -205.991"/></g><g id="node25" class="node"><title>NewsSummaryComponent</title><polygon fill="#fb8072" stroke="#000" points="1132.644 -252 961.356 -252 961.356 -216 1132.644 -216 1132.644 -252"/><text x="1047" y="-229.8" fill="#000" font-family="Times,serif" font-size="14" text-anchor="middle">NewsSummaryComponent</text></g><g id="edge24" class="edge"><title>Vnas2UiCommonsModule-&gt;NewsSummaryComponent</title><path fill="none" stroke="#000" stroke-dasharray="5 2" d="M1209.4529,-185C1150.6477,-185 1082.375,-185 1082.375,-185 1082.375,-185 1082.375,-205.7542 1082.375,-205.7542"/><polygon fill="#000" stroke="#000" points="1078.875 -205.754 1082.375 -215.754 1085.875 -205.754 1078.875 -205.754"/></g><g id="node26" class="node"><title>NewsWithDomainComponent</title><polygon fill="#fb8072" stroke="#000" points="943.803 -252 754.197 -252 754.197 -216 943.803 -216 943.803 -252"/><text x="849" y="-229.8" fill="#000" font-family="Times,serif" font-size="14" text-anchor="middle">NewsWithDomainComponent</text></g><g id="edge25" class="edge"><title>Vnas2UiCommonsModule-&gt;NewsWithDomainComponent</title><path fill="none" stroke="#000" stroke-dasharray="5 2" d="M1209.1371,-182C1089.9566,-182 885.875,-182 885.875,-182 885.875,-182 885.875,-205.8129 885.875,-205.8129"/><polygon fill="#000" stroke="#000" points="882.375 -205.813 885.875 -215.813 889.375 -205.813 882.375 -205.813"/></g><g id="node27" class="node"><title>PagingCommonComponent</title><polygon fill="#fb8072" stroke="#000" points="735.838 -252 560.162 -252 560.162 -216 735.838 -216 735.838 -252"/><text x="648" y="-229.8" fill="#000" font-family="Times,serif" font-size="14" text-anchor="middle">PagingCommonComponent</text></g><g id="edge26" class="edge"><title>Vnas2UiCommonsModule-&gt;PagingCommonComponent</title><path fill="none" stroke="#000" stroke-dasharray="5 2" d="M1209.3573,-179C1043.0813,-179 686.875,-179 686.875,-179 686.875,-179 686.875,-205.9909 686.875,-205.9909"/><polygon fill="#000" stroke="#000" points="683.375 -205.991 686.875 -215.991 690.375 -205.991 683.375 -205.991"/></g><g id="node28" class="node"><title>RenderDebugDirective</title><polygon fill="#fb8072" stroke="#000" points="541.831 -252 392.169 -252 392.169 -216 541.831 -216 541.831 -252"/><text x="467" y="-229.8" fill="#000" font-family="Times,serif" font-size="14" text-anchor="middle">RenderDebugDirective</text></g><g id="edge27" class="edge"><title>Vnas2UiCommonsModule-&gt;RenderDebugDirective</title><path fill="none" stroke="#000" stroke-dasharray="5 2" d="M1209.3499,-176C1007.0482,-176 507.875,-176 507.875,-176 507.875,-176 507.875,-205.9664 507.875,-205.9664"/><polygon fill="#000" stroke="#000" points="504.375 -205.966 507.875 -215.966 511.375 -205.966 504.375 -205.966"/></g><g id="node29" class="node"><title>SortByPipe</title><polygon fill="#fb8072" stroke="#000" points="374.058 -252 289.942 -252 289.942 -216 374.058 -216 374.058 -252"/><text x="332" y="-229.8" fill="#000" font-family="Times,serif" font-size="14" text-anchor="middle">SortByPipe</text></g><g id="edge28" class="edge"><title>Vnas2UiCommonsModule-&gt;SortByPipe</title><path fill="none" stroke="#000" stroke-dasharray="5 2" d="M1209.4972,-174C981.6004,-174 365.8582,-174 365.8582,-174 365.8582,-174 365.8582,-205.998 365.8582,-205.998"/><polygon fill="#000" stroke="#000" points="362.358 -205.998 365.858 -215.998 369.358 -205.998 362.358 -205.998"/></g><g id="node30" class="node"><title>TreeCategoryVerticalComponent</title><polygon fill="#fb8072" stroke="#000" points="272.375 -252 65.625 -252 65.625 -216 272.375 -216 272.375 -252"/><text x="169" y="-229.8" fill="#000" font-family="Times,serif" font-size="14" text-anchor="middle">TreeCategoryVerticalComponent</text></g><g id="edge29" class="edge"><title>Vnas2UiCommonsModule-&gt;TreeCategoryVerticalComponent</title><path fill="none" stroke="#000" stroke-dasharray="5 2" d="M1209.182,-171C955.5194,-171 213.375,-171 213.375,-171 213.375,-171 213.375,-205.7778 213.375,-205.7778"/><polygon fill="#000" stroke="#000" points="209.875 -205.778 213.375 -215.778 216.875 -205.778 209.875 -205.778"/></g><g id="node16" class="node"><title>MaterialModule</title><polygon fill="#8dd3c7" stroke="#000" points="130.471 -122 127.471 -126 106.471 -126 103.471 -122 23.529 -122 23.529 -86 130.471 -86 130.471 -122"/><text x="77" y="-99.8" fill="#000" font-family="Times,serif" font-size="14" text-anchor="middle">MaterialModule</text></g><g id="edge15" class="edge"><title>MaterialModule-&gt;Vnas2UiCommonsModule</title><path fill="none" stroke="#000" d="M98.024,-122.1686C98.024,-141.0898 98.024,-168 98.024,-168 98.024,-168 1199.4466,-168 1199.4466,-168"/><polygon fill="#000" stroke="#000" points="1199.447 -171.5 1209.447 -168 1199.447 -164.5 1199.447 -171.5"/></g></g></svg>