<svg xmlns="http://www.w3.org/2000/svg" xmlns:xlink="http://www.w3.org/1999/xlink" width="2044" height="211pt" viewBox="0 0 1533 211"><g id="graph0" class="graph" transform="scale(1 1) rotate(0) translate(4 207)"><title>dependencies</title><polygon fill="#fff" stroke="transparent" points="-4 4 -4 -207 1529 -207 1529 4 -4 4"/><text x="741.509" y="-42.4" fill="#000" font-family="sans-serif" font-size="14" font-weight="bold" text-anchor="start">Legend</text><polygon fill="#ffffb3" stroke="transparent" points="528.5 -10 528.5 -30 548.5 -30 548.5 -10 528.5 -10"/><text x="552.129" y="-15.4" fill="#000" font-family="sans-serif" font-size="14" text-anchor="start">Declarations</text><polygon fill="#8dd3c7" stroke="transparent" points="641.5 -10 641.5 -30 661.5 -30 661.5 -10 641.5 -10"/><text x="665.225" y="-15.4" fill="#000" font-family="sans-serif" font-size="14" text-anchor="start">Module</text><polygon fill="#80b1d3" stroke="transparent" points="727.5 -10 727.5 -30 747.5 -30 747.5 -10 727.5 -10"/><text x="751.281" y="-15.4" fill="#000" font-family="sans-serif" font-size="14" text-anchor="start">Bootstrap</text><polygon fill="#fdb462" stroke="transparent" points="824.5 -10 824.5 -30 844.5 -30 844.5 -10 824.5 -10"/><text x="848.173" y="-15.4" fill="#000" font-family="sans-serif" font-size="14" text-anchor="start">Providers</text><polygon fill="#fb8072" stroke="transparent" points="920.5 -10 920.5 -30 940.5 -30 940.5 -10 920.5 -10"/><text x="944.226" y="-15.4" fill="#000" font-family="sans-serif" font-size="14" text-anchor="start">Exports</text><g id="clust1" class="cluster"><title>cluster_Vnas2CoreModule</title><polygon fill="none" stroke="#000" stroke-dasharray="1 5" points="8 -70 8 -195 1517 -195 1517 -70 8 -70"/></g><g id="clust3" class="cluster"><title>cluster_Vnas2CoreModule_imports</title><polygon fill="none" stroke="#000" points="1365 -78 1365 -130 1509 -130 1509 -78 1365 -78"/></g><g id="clust6" class="cluster"><title>cluster_Vnas2CoreModule_providers</title><polygon fill="none" stroke="#000" points="16 -78 16 -130 1357 -130 1357 -78 16 -78"/></g><g id="node1" class="node"><title>NotificationModule</title><polygon fill="#8dd3c7" stroke="#000" points="1500.699 -122 1497.699 -126 1476.699 -126 1473.699 -122 1373.301 -122 1373.301 -86 1500.699 -86 1500.699 -122"/><text x="1437" y="-99.8" fill="#000" font-family="Times,serif" font-size="14" text-anchor="middle">NotificationModule</text></g><g id="node2" class="node"><title>Vnas2CoreModule</title><polygon fill="#8dd3c7" stroke="#000" points="809.028 -187 806.028 -191 785.028 -191 782.028 -187 686.972 -187 686.972 -151 809.028 -151 809.028 -187"/><text x="748" y="-164.8" fill="#000" font-family="Times,serif" font-size="14" text-anchor="middle">Vnas2CoreModule</text></g><g id="edge1" class="edge"><title>NotificationModule-&gt;Vnas2CoreModule</title><path fill="none" stroke="#000" d="M1437,-122.2921C1437,-144.2057 1437,-178 1437,-178 1437,-178 819.1442,-178 819.1442,-178"/><polygon fill="#000" stroke="#000" points="819.144 -174.5 809.144 -178 819.144 -181.5 819.144 -174.5"/></g><g id="node3" class="node"><title>ApiPrefixInterceptor</title><ellipse cx="1258" cy="-104" fill="#fdb462" stroke="#000" rx="91.448" ry="18"/><text x="1258" y="-99.8" fill="#000" font-family="Times,serif" font-size="14" text-anchor="middle">ApiPrefixInterceptor</text></g><g id="edge2" class="edge"><title>ApiPrefixInterceptor-&gt;Vnas2CoreModule</title><path fill="none" stroke="#000" d="M1258,-122.1061C1258,-141.3391 1258,-169 1258,-169 1258,-169 819.2644,-169 819.2644,-169"/><polygon fill="#000" stroke="#000" points="819.264 -165.5 809.264 -169 819.264 -172.5 819.264 -165.5"/></g><g id="node4" class="node"><title>AuthenticationService</title><ellipse cx="1051" cy="-104" fill="#fdb462" stroke="#000" rx="97.268" ry="18"/><text x="1051" y="-99.8" fill="#000" font-family="Times,serif" font-size="14" text-anchor="middle">AuthenticationService</text></g><g id="edge3" class="edge"><title>AuthenticationService-&gt;Vnas2CoreModule</title><path fill="none" stroke="#000" d="M1051,-122.027C1051,-138.3976 1051,-160 1051,-160 1051,-160 819.3166,-160 819.3166,-160"/><polygon fill="#000" stroke="#000" points="819.317 -156.5 809.317 -160 819.317 -163.5 819.317 -156.5"/></g><g id="node5" class="node"><title>CredentialsService</title><ellipse cx="852" cy="-104" fill="#fdb462" stroke="#000" rx="83.941" ry="18"/><text x="852" y="-99.8" fill="#000" font-family="Times,serif" font-size="14" text-anchor="middle">CredentialsService</text></g><g id="edge4" class="edge"><title>CredentialsService-&gt;Vnas2CoreModule</title><path fill="none" stroke="#000" d="M788.6466,-115.922C788.6466,-115.922 788.6466,-140.7669 788.6466,-140.7669"/><polygon fill="#000" stroke="#000" points="785.147 -140.767 788.647 -150.767 792.147 -140.767 785.147 -140.767"/></g><g id="node6" class="node"><title>ErrorHandlerInterceptor</title><ellipse cx="645" cy="-104" fill="#fdb462" stroke="#000" rx="104.733" ry="18"/><text x="645" y="-99.8" fill="#000" font-family="Times,serif" font-size="14" text-anchor="middle">ErrorHandlerInterceptor</text></g><g id="edge5" class="edge"><title>ErrorHandlerInterceptor-&gt;Vnas2CoreModule</title><path fill="none" stroke="#000" d="M718.3013,-117.1537C718.3013,-117.1537 718.3013,-140.6938 718.3013,-140.6938"/><polygon fill="#000" stroke="#000" points="714.801 -140.694 718.301 -150.694 721.801 -140.694 714.801 -140.694"/></g><g id="node7" class="node"><title>LoaderInterceptor</title><ellipse cx="441" cy="-104" fill="#fdb462" stroke="#000" rx="80.978" ry="18"/><text x="441" y="-99.8" fill="#000" font-family="Times,serif" font-size="14" text-anchor="middle">LoaderInterceptor</text></g><g id="edge6" class="edge"><title>LoaderInterceptor-&gt;Vnas2CoreModule</title><path fill="none" stroke="#000" d="M441,-122.027C441,-138.3976 441,-160 441,-160 441,-160 676.6118,-160 676.6118,-160"/><polygon fill="#000" stroke="#000" points="676.612 -163.5 686.612 -160 676.612 -156.5 676.612 -163.5"/></g><g id="node8" class="node"><title>LoadingService</title><ellipse cx="270" cy="-104" fill="#fdb462" stroke="#000" rx="72.352" ry="18"/><text x="270" y="-99.8" fill="#000" font-family="Times,serif" font-size="14" text-anchor="middle">LoadingService</text></g><g id="edge7" class="edge"><title>LoadingService-&gt;Vnas2CoreModule</title><path fill="none" stroke="#000" d="M270,-122.1061C270,-141.3391 270,-169 270,-169 270,-169 676.4884,-169 676.4884,-169"/><polygon fill="#000" stroke="#000" points="676.489 -172.5 686.488 -169 676.488 -165.5 676.489 -172.5"/></g><g id="node9" class="node"><title>TokenInterceptor</title><ellipse cx="102" cy="-104" fill="#fdb462" stroke="#000" rx="78.131" ry="18"/><text x="102" y="-99.8" fill="#000" font-family="Times,serif" font-size="14" text-anchor="middle">TokenInterceptor</text></g><g id="edge8" class="edge"><title>TokenInterceptor-&gt;Vnas2CoreModule</title><path fill="none" stroke="#000" d="M102,-122.2921C102,-144.2057 102,-178 102,-178 102,-178 676.935,-178 676.935,-178"/><polygon fill="#000" stroke="#000" points="676.935 -181.5 686.935 -178 676.935 -174.5 676.935 -181.5"/></g></g></svg>